inDegrees=no
num_controls=7
num_derivatives=13
num_iterations=68
num_multipliers=7
num_parameters=0
num_slacks=7
num_states=26
objective=0.333968
objective_accelerations=0.036843
objective_balance=0.001344
objective_effort=0.027088
objective_height=0.267218
objective_ligament=0.001475
solver_duration=709.974825
status=Solve_Succeeded
success=true
DataType=double
version=3
OpenSimVersion=4.5
endheader
time	/jointset/ground_pelvis/pelvis_tilt/value	/jointset/ground_pelvis/pelvis_tx/value	/jointset/ground_pelvis/pelvis_ty/value	/jointset/hip_r/hip_flexion_r/value	/jointset/hip_r/hip_adduction_r/value	/jointset/hip_r/hip_rotation_r/value	/jointset/back/lumbar_extension/value	/jointset/patellofemoral_r/patellar_flexion_r/value	/jointset/knee_r/knee_flexion_r/value	/jointset/knee_r/knee_adduction_r/value	/jointset/knee_r/knee_rotation_r/value	/jointset/ankle_r/ankle_angle_r/value	/jointset/subtalar_r/subtalar_angle_r/value	/jointset/ground_pelvis/pelvis_tilt/speed	/jointset/ground_pelvis/pelvis_tx/speed	/jointset/ground_pelvis/pelvis_ty/speed	/jointset/hip_r/hip_flexion_r/speed	/jointset/hip_r/hip_adduction_r/speed	/jointset/hip_r/hip_rotation_r/speed	/jointset/back/lumbar_extension/speed	/jointset/patellofemoral_r/patellar_flexion_r/speed	/jointset/knee_r/knee_flexion_r/speed	/jointset/knee_r/knee_adduction_r/speed	/jointset/knee_r/knee_rotation_r/speed	/jointset/ankle_r/ankle_angle_r/speed	/jointset/subtalar_r/subtalar_angle_r/speed	/forceset/tau_hip_flexion_r	/forceset/tau_hip_adduction_r	/forceset/tau_hip_rotation_r	/forceset/tau_knee_flexion_r	/forceset/tau_ankle_angle_r	/forceset/tau_subtalar_angle_r	/forceset/tau_lumbar_extension	lambda_cid13_p0	lambda_cid14_p0	lambda_cid14_p1	lambda_cid14_p2	lambda_cid14_p3	lambda_cid14_p4	lambda_cid14_p5	/jointset/ground_pelvis/pelvis_tilt/accel	/jointset/ground_pelvis/pelvis_tx/accel	/jointset/ground_pelvis/pelvis_ty/accel	/jointset/hip_r/hip_flexion_r/accel	/jointset/hip_r/hip_adduction_r/accel	/jointset/hip_r/hip_rotation_r/accel	/jointset/back/lumbar_extension/accel	/jointset/patellofemoral_r/patellar_flexion_r/accel	/jointset/knee_r/knee_flexion_r/accel	/jointset/knee_r/knee_adduction_r/accel	/jointset/knee_r/knee_rotation_r/accel	/jointset/ankle_r/ankle_angle_r/accel	/jointset/subtalar_r/subtalar_angle_r/accel	gamma_cid13_p0	gamma_cid14_p0	gamma_cid14_p1	gamma_cid14_p2	gamma_cid14_p3	gamma_cid14_p4	gamma_cid14_p5
0	-0.01181458237285193	0.1342281997986816	0.9324624175608697	0.1934211968871041	-0.2382754741463234	-0.2340094722118642	-0.2903787966825928	0.2311786273363393	0.2311786273363406	0.1550189437374503	0.1719846907263902	0.089344008118978	0.0512604345083068	0	0	0	0	0	0	0	0	0	0	0	0	0	0.1024024824803682	-0.0364201682720112	0.007229731537280648	-0.2371549449760099	0.111125600230226	-0.1299350040704003	-0.02527731542299657	-29.96612101313719	-12.64627901889571	-53.39055416236765	2.931956884155179	6.503471048649043	-611.7489512890044	15.47976455889444	-2.070284506834685	-1.965551851389853	-0.8213408452684188	10.3815999466727	0.4012796276816876	2.376418956357379	-6.284016178464698	10.09152681120473	10.09152681120426	-3.409265971896081	0.1699048396564923	2.678786184569632	1.212073238600073	8.704363986946034e-08	7.078198749820102e-08	-5.377889695875942e-07	3.994525226234232e-07	1.011054967868773e-08	2.667159616132986e-07	-4.691694851465998e-07
0.01	-0.01191231047894071	0.1341326915038673	0.9324225041813317	0.1939262380453059	-0.2382534407333913	-0.2338896918312728	-0.2906944383121193	0.23167433898081	0.2316743389808059	0.1548467251442578	0.1719885928960083	0.08947825474671746	0.051323545085649	-0.01948898915604368	-0.01884511259592827	-0.007965453061415155	0.1003630941745799	0.004314963777433108	0.02382440440047919	-0.06271598666194199	0.0987019880764809	0.09870198807647884	-0.0341294879687649	0.0008205969289519864	0.02692199067797131	0.01253339871743273	0.1041280350329282	-0.05787509241470282	0.006667294482166171	-0.246454821657847	0.1232227703186123	-0.116483557645109	-0.02515720788363155	-29.97052773148902	-8.068502107224537	-46.67319686194974	1.776660957588628	0.8708980070639643	-613.137675691578	30.41115580766873	-1.879711474974642	-1.805506986435228	-0.781510766462893	9.766897421809295	0.4328323396946416	2.365781605496724	-6.203539023626144	9.693466274552875	9.693466274552863	-3.367704310001175	0.04424093840697926	2.709819566248925	1.260627609734526	1.078105132203339e-07	6.218891742509008e-08	-6.57066059525201e-07	5.006929566283335e-07	3.42466209451426e-08	1.44978242539096e-07	-6.094149735937e-07
0.02	-0.01220322954758532	0.1338564288785456	0.9323034636252024	0.195415556799049	-0.2381910121653017	-0.2335356013219581	-0.2916248696309781	0.2331438567997767	0.2331438567997764	0.1543426288512601	0.1720019217987055	0.08988390409260319	0.05150932053444948	-0.03863819251151263	-0.03615086610147217	-0.01582543531822993	0.1968555191075046	0.008079031031684019	0.0468620257450993	-0.1229579378665773	0.194761234900286	0.1947612349002845	-0.06637553996291107	0.001885346613599804	0.05428054362946533	0.02453297429165265	0.1058535875855135	-0.07933001655738545	0.006104857427100058	-0.2557546983396742	0.135319940407006	-0.1030321112198055	-0.02503710034425244	-29.98342743330843	-3.41094242826391	-39.96804727096912	0.6532142230024132	-4.669684734560808	-613.1926191260986	44.98578197783216	-2.002327346719776	-1.65768003331294	-0.8002466843483457	9.607466098341648	0.2911003230452513	2.219062345185561	-5.789209087003385	9.562978560669572	9.562978560669624	-3.03257877697234	0.218735390795653	2.766098639274216	1.105308609957528	1.285773865712074e-07	5.359584735197914e-08	-7.763431494628078e-07	6.019333906332437e-07	5.838269221159746e-08	2.324052346489332e-08	-7.496604620408005e-07
0.03	-0.01268445465785758	0.1334129447768282	0.932106061194069	0.197853144823172	-0.2380936210659389	-0.2329570263840362	-0.2931444853591088	0.2355605675256416	0.2355605675256416	0.153525383350946	0.1720286554643108	0.09056265796247807	0.05181184110978626	-0.05756128649759204	-0.05247489250063631	-0.02365886700507347	0.2902476138591062	0.01134600888017237	0.06870078863889341	-0.180510742333085	0.2881014428159377	0.2881014428159365	-0.09681734021572967	0.003465173832874739	0.08128925664430632	0.03586275641546779	0.09990195448942561	-0.08170087902586026	0.006880958085186372	-0.2492707370322541	0.1254191722629326	-0.09639198426927036	-0.02016553598627806	-30.00442405576767	-6.256860643950414	-37.43841930180616	0.08530174610595763	-3.356998078395636	-613.5898221293677	49.09290084286598	-1.83046090887505	-1.60909290785053	-0.7754596691149181	9.142917824340982	0.33652047687283	2.14357579705008	-5.670146312563038	9.147595989080829	9.147595989080834	-3.011608742005762	0.1282914020592834	2.641126812868475	1.130504514497925	1.316805735848485e-07	4.911094170568305e-08	-7.543877262372516e-07	6.831436644513376e-07	6.207590982169832e-08	-2.447164399472235e-08	-8.072052394640942e-07
0.04	-0.01335354280485374	0.1328083546181927	0.9318302107944146	0.2012122211269666	-0.237965155395867	-0.2321646053100619	-0.295225995169122	0.2388962911470775	0.2388962911470772	0.1524113942295938	0.1720713244050184	0.09150607279855717	0.05222439780654209	-0.07621079985659863	-0.06837207748507254	-0.03151502902241256	0.381153175041571	0.01429394517354886	0.08963125295563756	-0.235336754243141	0.3785638140143037	0.3785638140143025	-0.1257242641713144	0.005072401634784142	0.1072127368703253	0.04654019857546004	0.09395032139333963	-0.08407174149433458	0.007657058743260896	-0.2427867757248318	0.1155184041188598	-0.08975185731873346	-0.01529397162830264	-30.03248481608864	-9.029288262639513	-34.91616186554951	-0.4583181318227705	-1.974004228259661	-612.7816910361016	52.88245599382834	-1.94761122130525	-1.572311750367325	-0.8047927504474571	9.110159384514278	0.2272920120228845	2.037402629775565	-5.24385057571308	8.987411217212406	8.987411217212436	-2.725603517525572	0.2242155073225409	2.549052081509858	0.9748406171929654	1.344195608801963e-07	4.471074048055839e-08	-7.295202924310114e-07	7.639409452758889e-07	6.534762529455477e-08	-7.065751142104757e-08	-8.630448475879282e-07
0.05	-0.01420746351634024	0.1320471433677572	0.9314754908539941	0.2054676864237732	-0.2378085629198256	-0.2311684134802619	-0.2978427613196235	0.2431228499694044	0.2431228499694041	0.1510153378049825	0.1721309051898836	0.09270391651923755	0.05274098997680274	-0.09444679519940258	-0.0837754771007789	-0.03944314472100986	0.4694258124545286	0.01700482256909553	0.1094736258230875	-0.2876797034907665	0.4662810125407789	0.4662810125407778	-0.1532953447000884	0.006789162258915677	0.1322287641470335	0.05672879758334193	0.08851408006663633	-0.07663726942865777	0.008134871541172048	-0.238507970337931	0.1111825988587693	-0.09116441436349905	-0.01083867338543608	-30.06652194688202	-10.42995138853386	-35.84739758527621	-0.2270226490844784	-1.615765316448411	-612.0971106308835	49.34899425270975	-1.742600599707818	-1.510136645921651	-0.7889633331865142	8.608713942697829	0.2900664338982872	1.93777346676692	-5.17900124438223	8.59380657783087	8.5938065778309	-2.744144388301488	0.1373605342965527	2.458800658069264	1.033430879901414	1.245468365396809e-07	3.31395948097851e-08	-6.53790792502946e-07	6.743936337782223e-07	6.611943034115666e-08	-1.73784008121519e-07	-7.606087286531553e-07
